Simulation
nRows=28
nColumns=15
endheader
time  TH_x TH_y TH_z SC_y  SC_z  SC_x  AC_y  AC_z  AC_x  GH_y  GH_z  GH_yy  EL_x  PS_y
0.0  0.000000  0.000000  0.000000  -16.89564680703381  0.11332551812510595  9.333496967203484  59.88420697206687  -2.7724767661794965  -11.459156473913298  1.5642119665898986  18.009469096652136  29.138885736614537  29.759558960295404  120.000000
0.03  0.000000  0.000000  0.000000  -17.210714317062916  0.25476200473575156  9.263018048463453  60.131474018953526  -2.1538821461257722  -11.291799164822786  3.537401753788131  18.489903019345586  26.027991924949383  29.979868461664374  120.000000
0.06  0.000000  0.000000  0.000000  -17.532554801529525  0.38429226810203587  9.2105487128937  60.443017241689674  -1.5884352896853935  -11.073988196905772  5.497287633788849  18.998988316585308  22.893532743505325  30.23591668574879  120.000000
0.09  0.000000  0.000000  0.000000  -17.850517217917677  0.48828226115060697  9.179831883236888  60.840846209158826  -1.0641774314141372  -10.803134057411894  7.421176157668313  19.572887561744977  19.72541420580818  30.524286438786763  120.000000
0.12  0.000000  0.000000  0.000000  -18.18619060965001  0.5772213440891565  9.167543183863623  61.32739781061701  -0.5689751379166875  -10.47395447112885  9.288187166166288  20.247478596207497  16.51413179564458  30.866622756762766  120.000000
0.15  0.000000  0.000000  0.000000  -18.539113804535173  0.6562462822781533  9.171097619482952  61.88854209083769  -0.08776115934108933  -10.09917717979956  11.07836669179689  21.046777403004516  13.264525725948213  31.26582489709258  120.000000
0.18  0.000000  0.000000  0.000000  -18.906646654994873  0.7308891035195633  9.18650363379154  62.504295827119606  0.3913955564290403  -9.690032407769658  12.776869515110338  21.982813975885364  9.993773225171125  31.7218982462611  120.000000
0.21  0.000000  0.000000  0.000000  -19.276267163255266  0.8054979600821734  9.209108711563827  63.15591271216386  0.8749916182933982  -9.256479567251835  14.369499165296393  23.05450703674129  6.723659751013927  32.22918047713019  120.000000
0.24  0.000000  0.000000  0.000000  -19.6311346922792  0.8817188645721704  9.23641814930387  63.82566783370919  1.3681208295503064  -8.808844268613056  15.845937385122452  24.249883999111695  3.482794557532428  32.77765234198256  120.000000
0.27  0.000000  0.000000  0.000000  -19.95691669830436  0.9620399470088652  9.268017143682368  64.49822910255374  1.874634396108672  -8.355857893858245  17.19842917401933  25.550361577415302  0.2997277046303506  33.35765675565841  120.000000
0.3  0.000000  0.000000  0.000000  -20.24447107837266  1.0490944412454517  9.306465013322642  65.16114057482426  2.3987296684608617  -7.905924531393861  18.422825059813704  26.933270440103495  -2.799822507788255  33.95927081490246  120.000000
0.32999999999999996  0.000000  0.000000  0.000000  -20.493998871071852  1.145063397013793  9.35624507663186  65.80511871019868  2.944084679665988  -7.466648376576846  19.518918769463117  28.375463836543343  -5.797623057674669  34.572791981450315  120.000000
0.36  0.000000  0.000000  0.000000  -20.715847034828467  1.251073248424567  9.422553842743005  66.42520193297808  3.512840246781355  -7.0443242363548215  20.489779630763802  29.854775241151522  -8.68703577005676  35.188196655938214  120.000000
0.39  0.000000  0.000000  0.000000  -20.928531821963542  1.3666529758101713  9.510501323758596  67.01966208794511  4.1050735580838085  -6.644018764033614  21.341810166066526  31.351527818717088  -11.472174186947164  35.795193701353966  120.000000
0.42  0.000000  0.000000  0.000000  -21.154532356622486  1.4904427236436861  9.624640270224909  67.58946898009445  4.719033351251485  -6.269408455701826  22.08360895382394  32.84840621554463  -14.164636334481706  36.384049247251056  120.000000
0.44999999999999996  0.000000  0.000000  0.000000  -21.414999640821154  1.6204594765021527  9.768531114650504  68.13571618741123  5.351341387060905  -5.922920433015673  22.725100048844688  34.330131574463685  -16.776572632285834  36.946038146349444  120.000000
0.48  0.000000  0.000000  0.000000  -21.724518311672142  1.754225247062812  9.943821057110032  68.65920229689661  5.996636289909413  -5.605501601209098  23.275834193868064  35.78306293776503  -19.314970411255306  37.47319489196451  120.000000
0.51  0.000000  0.000000  0.000000  -22.08715911612853  1.8891534677330162  10.149956360828156  69.15965928379975  6.647267878946586  -5.31593531445001  23.743776036494538  37.19531284522213  -21.77663421637886  37.958272034809035  120.000000
0.54  0.000000  0.000000  0.000000  -22.496220679691  2.0226772473020147  10.384024276724524  69.63715716127447  7.293447037022391  -5.051197822922793  24.13408863910886  38.55846345111928  -24.14757046597933  38.39497212030928  120.000000
0.57  0.000000  0.000000  0.000000  -22.93636738844494  2.152864363908239  10.641080208355692  70.09177137188361  7.923672585126532  -4.8060013214188535  24.44908526613511  39.8679217434614  -26.40511980934215  38.77799787843468  120.000000
0.6  0.000000  0.000000  0.000000  -23.387870330955568  2.2786903945502583  10.914415878831168  70.52398674010347  8.525747000820767  -4.573977936546161  24.688832629037478  41.12313906671946  -28.523064724873322  39.10304890414411  120.000000
0.63  0.000000  0.000000  0.000000  -23.83227346922673  2.399874912742832  11.196505956714523  70.93450221475734  9.08831963514832  -4.348683963867958  24.852872604315365  42.32672501959052  -30.476543015773004  39.367476193353404  120.000000
0.6599999999999999  0.000000  0.000000  0.000000  -24.255217595061684  2.516753586470483  11.479767904090432  71.32418267909523  9.60202783186091  -4.124978173049941  24.942047485875744  43.48323682799089  -32.2469097949899  39.570311171187754  120.000000
0.69  0.000000  0.000000  0.000000  -24.647787071928118  2.629952766329152  11.757723315788304  71.69380402846402  10.06084380185987  -3.8996543568112108  24.960045846032113  44.59730435866042  -33.82415703672608  39.71211884889119  120.000000
0.72  0.000000  0.000000  0.000000  -25.007044811124075  2.7402996459628173  12.02583720939198  72.04378678558565  10.462757214775293  -3.6719574065827487  24.913565387447047  45.67319664728955  -35.20772278271958  39.79526875539861  120.000000
0.75  0.000000  0.000000  0.000000  -25.33431136519288  2.8486747409777413  12.281958538806283  72.37417480258549  10.809231469883727  -3.443098682627768  24.81167908419063  46.71405020636905  -36.40535244979167  39.82370965584266  120.000000
0.78  0.000000  0.000000  0.000000  -25.63234320400052  2.9554887487801196  12.525765857174854  72.68488449850484  11.103975835156396  -3.215396543790141  24.66542664225636  47.72102679004028  -37.43056204942228  39.80268907441601  120.000000
0.8099999999999999  0.000000  0.000000  0.000000  -25.90418532093071  3.0603028266304966  12.758040292250914  72.97651646197502  11.352003258628189  -2.9916619473137787  24.486975589409255  48.69296392205949  -38.2998267742752  39.73892695799828  120.000000
